<?xml version="1.0" encoding="UTF-8" standalone="no"?>
<svg
   xmlns:dc="http://purl.org/dc/elements/1.1/"
   xmlns:cc="http://creativecommons.org/ns#"
   xmlns:rdf="http://www.w3.org/1999/02/22-rdf-syntax-ns#"
   xmlns:svg="http://www.w3.org/2000/svg"
   xmlns="http://www.w3.org/2000/svg"
   id="svg1004"
   version="1.1"
   viewBox="0 0 6.6457629 19.737916"
   height="32"
   width="32">
  <defs
     id="defs998" />
  <metadata
     id="metadata1001">
    <rdf:RDF>
      <cc:Work
         rdf:about="">
        <dc:format>image/svg+xml</dc:format>
        <dc:type
           rdf:resource="http://purl.org/dc/dcmitype/StillImage" />
        <dc:title></dc:title>
      </cc:Work>
    </rdf:RDF>
  </metadata>
  <g
     transform="matrix(0.42895443,0,0,0.42895443,54.100164,-153.55624)"
     id="layer1">
    <g
       transform="matrix(0.61680987,0,0,0.61680987,-304.03431,268.47887)"
       id="g8145">
      <g
         id="g8123">
        <g
           id="g8097">
          <g
             id="g8095">
            <g
               id="g8093">
              <path
                 style="fill:#6a3129"
                 id="path8089"
                 d="m 301,219.3 c -20.3,0 -36.8,-16.5 -36.8,-36.8 0,-20.3 16.5,-36.8 36.8,-36.8 20.3,0 36.8,16.5 36.8,36.8 0,20.3 -16.5,36.8 -36.8,36.8 z m 0,-71.8 c -19.3,0 -35,15.7 -35,35 0,19.3 15.7,35 35,35 19.3,0 35,-15.7 35,-35 0,-19.3 -15.7,-35 -35,-35 z"
                 class="st1" />
              <path
                 style="fill:#6a3129"
                 id="path8091"
                 d="m 301,219.7 c -20.5,0 -37.3,-16.7 -37.3,-37.3 0,-20.6 16.7,-37.3 37.3,-37.3 20.5,0 37.3,16.7 37.3,37.3 0,20.6 -16.7,37.3 -37.3,37.3 z m 0,-73.6 c -20,0 -36.4,16.3 -36.4,36.4 0,20 16.3,36.4 36.4,36.4 20,0 36.4,-16.3 36.4,-36.4 0,-20.1 -16.3,-36.4 -36.4,-36.4 z m 0,71.8 c -19.5,0 -35.4,-15.9 -35.4,-35.4 0,-19.5 15.9,-35.4 35.4,-35.4 19.5,0 35.4,15.9 35.4,35.4 0.1,19.5 -15.8,35.4 -35.4,35.4 z m 0,-70 c -19,0 -34.5,15.5 -34.5,34.5 0,19 15.5,34.6 34.5,34.6 19,0 34.5,-15.5 34.5,-34.5 0,-19 -15.4,-34.6 -34.5,-34.6 z"
                 class="st1" />
            </g>
          </g>
        </g>
        <g
           id="g8103">
          <g
             id="g8101">
            <path
               style="fill:#6a3129"
               id="path8099"
               d="m 320.1,200.2 c 0,0 -7,-13.4 -19.1,-13.4 -11.1,0 -19.1,13.4 -19.1,13.4 0,0 4.3,-16 19.1,-16 15.9,0 19.1,16 19.1,16 z"
               class="st1" />
          </g>
        </g>
        <g
           id="g8121">
          <g
             id="g8111">
            <g
               id="g8109">
              <g
                 id="g8107">
                <path
                   style="fill:#6a3129"
                   id="path8105"
                   d="m 287.5,176.8 c 2.9,0 2.9,-4.5 0,-4.5 -2.9,0 -3,4.5 0,4.5 z"
                   class="st1" />
              </g>
            </g>
          </g>
          <g
             id="g8119">
            <g
               id="g8117">
              <g
                 id="g8115">
                <path
                   style="fill:#6a3129"
                   id="path8113"
                   d="m 314.6,176.8 c 2.9,0 2.9,-4.5 0,-4.5 -2.9,0 -3,4.5 0,4.5 z"
                   class="st1" />
              </g>
            </g>
          </g>
        </g>
      </g>
      <g
         id="g8133">
        <g
           style="opacity:0.41000001"
           id="g8131"
           class="st2">
          <g
             id="g8129">
            <g
               id="g8127">
              <path
                 style="fill:#6a3129"
                 id="path8125"
                 d="m 321.3,187.4 v 0 c 1.8,-0.7 3.3,-2.3 3.7,-4.3 0.4,-1.9 -0.3,-4.1 -2,-5.2 -0.9,-0.6 -2,-0.9 -3.1,-0.9 -2.3,-0.1 -4.6,0.7 -6.1,2.4 -1.5,1.6 -2.5,4.8 -0.7,6.5 2,2 5.6,2.5 8.2,1.5 z"
                 class="st1" />
            </g>
          </g>
        </g>
      </g>
      <g
         id="g8143">
        <g
           style="opacity:0.41000001"
           id="g8141"
           class="st2">
          <g
             id="g8139">
            <g
               id="g8137">
              <path
                 style="fill:#6a3129"
                 id="path8135"
                 d="m 283.1,187.8 v 0 c 2,-0.2 3.8,-1.3 4.8,-3 1,-1.7 0.9,-4 -0.3,-5.5 -0.7,-0.8 -1.7,-1.4 -2.7,-1.8 -2.1,-0.8 -4.6,-0.7 -6.6,0.5 -1.9,1.1 -3.8,3.8 -2.6,6 1.4,2.5 4.6,4.1 7.4,3.8 z"
                 class="st1" />
            </g>
          </g>
        </g>
      </g>
    </g>
  </g>
</svg>
