<?xml version="1.0" encoding="UTF-8" standalone="no"?>
<svg
   xmlns:dc="http://purl.org/dc/elements/1.1/"
   xmlns:cc="http://creativecommons.org/ns#"
   xmlns:rdf="http://www.w3.org/1999/02/22-rdf-syntax-ns#"
   xmlns:svg="http://www.w3.org/2000/svg"
   xmlns="http://www.w3.org/2000/svg"
   id="svg1004"
   version="1.1"
   viewBox="0 0 6.6457629 19.737916"
   height="32"
   width="32">
  <defs
     id="defs998" />
  <metadata
     id="metadata1001">
    <rdf:RDF>
      <cc:Work
         rdf:about="">
        <dc:format>image/svg+xml</dc:format>
        <dc:type
           rdf:resource="http://purl.org/dc/dcmitype/StillImage" />
        <dc:title></dc:title>
      </cc:Work>
    </rdf:RDF>
  </metadata>
  <g
     transform="matrix(0.42895443,0,0,0.42895443,57.972847,-152.80285)"
     id="layer1">
    <g
       transform="matrix(0.61680987,0,0,0.61680987,-313.0625,63.668718)"
       id="g9471">
      <g
         id="g9425">
        <g
           id="g9423">
          <path
             style="fill:#6a3129"
             id="path9419"
             d="m 301,548.5 c -20.3,0 -36.8,-16.5 -36.8,-36.8 0,-20.3 16.5,-36.8 36.8,-36.8 20.3,0 36.8,16.5 36.8,36.8 0,20.3 -16.5,36.8 -36.8,36.8 z m 0,-71.8 c -19.3,0 -35,15.7 -35,35 0,19.3 15.7,35 35,35 19.3,0 35,-15.7 35,-35 0,-19.3 -15.7,-35 -35,-35 z"
             class="st1" />
          <path
             style="fill:#6a3129"
             id="path9421"
             d="m 301,548.9 c -20.5,0 -37.3,-16.7 -37.3,-37.3 0,-20.5 16.7,-37.3 37.3,-37.3 20.5,0 37.3,16.7 37.3,37.3 0,20.6 -16.7,37.3 -37.3,37.3 z m 0,-73.6 c -20,0 -36.4,16.3 -36.4,36.4 0,20 16.3,36.4 36.4,36.4 20,0 36.4,-16.3 36.4,-36.4 0,-20.1 -16.3,-36.4 -36.4,-36.4 z m 0,71.8 c -19.5,0 -35.4,-15.9 -35.4,-35.4 0,-19.5 15.9,-35.4 35.4,-35.4 19.5,0 35.4,15.9 35.4,35.4 0.1,19.5 -15.8,35.4 -35.4,35.4 z m 0,-70 c -19,0 -34.5,15.5 -34.5,34.5 0,19 15.5,34.5 34.5,34.5 19,0 34.5,-15.5 34.5,-34.5 0.1,-19 -15.4,-34.5 -34.5,-34.5 z"
             class="st1" />
        </g>
      </g>
      <g
         id="g9439">
        <g
           id="g9431">
          <g
             id="g9429">
            <polygon
               style="fill:#6a3129"
               id="polygon9427"
               points="284.8,500.7 285.4,499 294.9,502.5 285.4,506 284.8,504.3 289.7,502.5 "
               class="st1" />
          </g>
        </g>
        <g
           id="g9437">
          <g
             id="g9435">
            <polygon
               style="fill:#6a3129"
               id="polygon9433"
               points="317.3,500.7 312.4,502.5 317.3,504.3 316.6,506 307.1,502.5 316.6,499 "
               class="st1" />
          </g>
        </g>
      </g>
      <g
         id="g9451">
        <g
           id="g9449">
          <g
             style="opacity:0.41000001"
             id="g9447"
             class="st2">
            <g
               id="g9445">
              <g
                 id="g9443">
                <path
                   style="fill:#6a3129"
                   id="path9441"
                   d="m 279.7,518.5 v 0 c 1.6,-1 2.9,-2.4 3.2,-3.8 0.3,-1.3 -0.4,-2.5 -1.9,-2.8 -0.8,-0.1 -1.8,0 -2.8,0.3 -2,0.6 -4.1,1.7 -5.4,3.3 -1.3,1.5 -2.1,3.8 -0.5,4.4 1.9,0.7 5.1,0 7.4,-1.4 z"
                   class="st1" />
              </g>
            </g>
          </g>
        </g>
      </g>
      <g
         id="g9463">
        <g
           id="g9461">
          <g
             style="opacity:0.41000001"
             id="g9459"
             class="st2">
            <g
               id="g9457">
              <g
                 id="g9455">
                <path
                   style="fill:#6a3129"
                   id="path9453"
                   d="m 325.4,512.7 v 0 c -1.8,-0.4 -3.8,-0.3 -4.9,0.4 -1.2,0.7 -1.5,2.1 -0.6,3.3 0.5,0.7 1.3,1.3 2.2,1.8 1.8,1 4.1,1.7 6.1,1.5 1.9,-0.1 4.1,-1.2 3.4,-2.8 -0.8,-1.8 -3.6,-3.6 -6.2,-4.2 z"
                   class="st1" />
              </g>
            </g>
          </g>
        </g>
      </g>
      <g
         id="g9469">
        <g
           id="g9467">
          <path
             style="fill:#6a3129"
             id="path9465"
             d="m 275.1,516.1 h 51.8 c 0,0 -5.8,21.7 -25.9,21.7 -21.5,0 -25.9,-21.7 -25.9,-21.7 z"
             class="st1" />
        </g>
      </g>
    </g>
  </g>
</svg>
