<?xml version="1.0" encoding="UTF-8" standalone="no"?>
<svg
   xmlns:dc="http://purl.org/dc/elements/1.1/"
   xmlns:cc="http://creativecommons.org/ns#"
   xmlns:rdf="http://www.w3.org/1999/02/22-rdf-syntax-ns#"
   xmlns:svg="http://www.w3.org/2000/svg"
   xmlns="http://www.w3.org/2000/svg"
   id="svg1004"
   version="1.1"
   viewBox="0 0 6.6457629 19.737916"
   height="32"
   width="32">
  <defs
     id="defs998" />
  <metadata
     id="metadata1001">
    <rdf:RDF>
      <cc:Work
         rdf:about="">
        <dc:format>image/svg+xml</dc:format>
        <dc:type
           rdf:resource="http://purl.org/dc/dcmitype/StillImage" />
        <dc:title></dc:title>
      </cc:Work>
    </rdf:RDF>
  </metadata>
  <g
     transform="matrix(0.42895443,0,0,0.42895443,16.113493,-123.72027)"
     id="layer1">
    <g
       transform="matrix(0.61680987,0,0,0.61680987,-328.35409,-4.1300536)"
       id="g8555">
      <g
         id="g8531">
        <g
           id="g8507">
          <g
             id="g8505">
            <g
               id="g8503">
              <path
                 style="fill:#6a3129"
                 id="path8499"
                 d="m 484,548.5 c -20.3,0 -36.8,-16.5 -36.8,-36.8 0,-20.3 16.5,-36.8 36.8,-36.8 20.3,0 36.8,16.5 36.8,36.8 0,20.3 -16.5,36.8 -36.8,36.8 z m 0,-71.8 c -19.3,0 -35,15.7 -35,35 0,19.3 15.7,35 35,35 19.3,0 35,-15.7 35,-35 0,-19.3 -15.7,-35 -35,-35 z"
                 class="st1" />
              <path
                 style="fill:#6a3129"
                 id="path8501"
                 d="m 484,548.9 c -20.5,0 -37.3,-16.7 -37.3,-37.3 0,-20.5 16.7,-37.3 37.3,-37.3 20.5,0 37.3,16.7 37.3,37.3 -0.1,20.6 -16.8,37.3 -37.3,37.3 z m 0,-73.6 c -20,0 -36.4,16.3 -36.4,36.4 0,20 16.3,36.4 36.4,36.4 20,0 36.4,-16.3 36.4,-36.4 C 520.3,491.6 504,475.3 484,475.3 Z m 0,71.8 c -19.5,0 -35.4,-15.9 -35.4,-35.4 0,-19.5 15.9,-35.4 35.4,-35.4 19.5,0 35.4,15.9 35.4,35.4 0,19.5 -15.9,35.4 -35.4,35.4 z m 0,-70 c -19,0 -34.5,15.5 -34.5,34.5 0,19 15.5,34.5 34.5,34.5 19,0 34.5,-15.5 34.5,-34.5 0,-19 -15.5,-34.5 -34.5,-34.5 z"
                 class="st1" />
            </g>
          </g>
        </g>
        <g
           id="g8515">
          <g
             id="g8513">
            <g
               id="g8511">
              <path
                 style="fill:#6a3129"
                 id="path8509"
                 d="m 473.3,529.1 c 1.8,-3.6 7.2,-6.3 10.9,-7.1 5.4,-1.1 10.9,0 14.7,4.1 2,2.1 5.2,-1.1 3.2,-3.2 -4.7,-5 -10.9,-6.4 -17.6,-5.5 -5.4,0.7 -12.6,4.3 -15.1,9.4 -1.3,2.6 2.6,4.9 3.9,2.3 z"
                 class="st1" />
            </g>
          </g>
        </g>
        <g
           id="g8529">
          <g
             id="g8521">
            <g
               id="g8519">
              <polygon
                 style="fill:#6a3129"
                 id="polygon8517"
                 points="469.6,510 474.4,508.2 469.6,506.4 470.2,504.7 479.7,508.2 470.2,511.7 "
                 class="st1" />
            </g>
          </g>
          <g
             id="g8527">
            <g
               id="g8525">
              <polygon
                 style="fill:#6a3129"
                 id="polygon8523"
                 points="491.9,508.2 501.4,504.7 502,506.4 497.2,508.2 502,510 501.4,511.7 "
                 class="st1" />
            </g>
          </g>
        </g>
      </g>
      <g
         id="g8553">
        <g
           id="g8541">
          <g
             style="opacity:0.41000001"
             id="g8539"
             class="st2">
            <g
               id="g8537">
              <g
                 id="g8535">
                <path
                   style="fill:#6a3129"
                   id="path8533"
                   d="m 469.7,513.9 v 0 c -1.5,0.9 -2.6,2.3 -2.7,3.5 -0.1,1.2 1,2.3 2.7,2.4 0.9,0.1 2,-0.1 3,-0.3 2.1,-0.6 4.1,-1.7 5.2,-3.1 1.1,-1.4 1.4,-3.5 -0.5,-4 -2.2,-0.5 -5.6,0.2 -7.7,1.5 z"
                   class="st1" />
              </g>
            </g>
          </g>
        </g>
        <g
           id="g8551">
          <g
             style="opacity:0.41000001"
             id="g8549"
             class="st2">
            <g
               id="g8547">
              <g
                 id="g8545">
                <path
                   style="fill:#6a3129"
                   id="path8543"
                   d="m 501.5,512.7 v 0 c -1.9,-0.1 -3.8,0.4 -4.8,1.3 -1,0.9 -1.1,2.3 0,3.4 0.6,0.6 1.5,1 2.4,1.4 2,0.7 4.4,0.9 6.3,0.4 1.9,-0.5 3.9,-1.9 2.9,-3.3 -1.1,-1.7 -4.2,-3 -6.8,-3.2 z"
                   class="st1" />
              </g>
            </g>
          </g>
        </g>
      </g>
    </g>
  </g>
</svg>
