<?xml version="1.0" encoding="UTF-8" standalone="no"?>
<svg
   xmlns:dc="http://purl.org/dc/elements/1.1/"
   xmlns:cc="http://creativecommons.org/ns#"
   xmlns:rdf="http://www.w3.org/1999/02/22-rdf-syntax-ns#"
   xmlns:svg="http://www.w3.org/2000/svg"
   xmlns="http://www.w3.org/2000/svg"
   id="svg1004"
   version="1.1"
   viewBox="0 0 6.6457629 19.737916"
   height="32"
   width="32">
  <defs
     id="defs998" />
  <metadata
     id="metadata1001">
    <rdf:RDF>
      <cc:Work
         rdf:about="">
        <dc:format>image/svg+xml</dc:format>
        <dc:type
           rdf:resource="http://purl.org/dc/dcmitype/StillImage" />
        <dc:title></dc:title>
      </cc:Work>
    </rdf:RDF>
  </metadata>
  <g
     transform="matrix(0.42895443,0,0,0.42895443,42.852196,-165.87922)"
     id="layer1">
    <g
       transform="matrix(0.61680987,0,0,0.61680987,-163.27089,161.44696)"
       id="g9123">
      <g
         id="g9099">
        <g
           id="g9071">
          <g
             id="g9069">
            <g
               id="g9067">
              <path
                 style="fill:#6a3129"
                 id="path9063"
                 d="m 115.3,439.4 c -20.3,0 -36.8,-16.5 -36.8,-36.8 0,-20.3 16.5,-36.8 36.8,-36.8 20.3,0 36.8,16.5 36.8,36.8 0.1,20.2 -16.5,36.8 -36.8,36.8 z m 0,-71.8 c -19.3,0 -35,15.7 -35,35 0,19.3 15.7,35 35,35 19.3,0 35,-15.7 35,-35 0,-19.3 -15.7,-35 -35,-35 z"
                 class="st1" />
              <path
                 style="fill:#6a3129"
                 id="path9065"
                 d="M 115.3,439.8 C 94.8,439.8 78,423.1 78,402.5 c 0,-20.5 16.7,-37.3 37.3,-37.3 20.6,0 37.3,16.7 37.3,37.3 0,20.6 -16.7,37.3 -37.3,37.3 z m 0,-73.6 c -20,0 -36.4,16.3 -36.4,36.4 0,20 16.3,36.4 36.4,36.4 20,0 36.4,-16.3 36.4,-36.4 0,-20.1 -16.3,-36.4 -36.4,-36.4 z m 0,71.8 c -19.5,0 -35.4,-15.9 -35.4,-35.4 0,-19.5 15.9,-35.4 35.4,-35.4 19.5,0 35.4,15.9 35.4,35.4 0.1,19.5 -15.8,35.4 -35.4,35.4 z m 0,-70 c -19,0 -34.5,15.5 -34.5,34.5 0,19 15.5,34.5 34.5,34.5 19,0 34.5,-15.5 34.5,-34.5 0.1,-19 -15.4,-34.5 -34.5,-34.5 z"
                 class="st1" />
            </g>
          </g>
        </g>
        <g
           id="g9079">
          <g
             id="g9077">
            <g
               id="g9075">
              <path
                 style="fill:#6a3129"
                 id="path9073"
                 d="m 107.9,418.9 c 1.8,-3.6 7.2,-6.3 10.9,-7.1 5.4,-1.1 10.9,0 14.7,4.1 2,2.1 5.2,-1.1 3.2,-3.2 -4.7,-5 -10.9,-6.4 -17.6,-5.5 -5.4,0.7 -12.6,4.3 -15.1,9.4 -1.3,2.6 2.6,5 3.9,2.3 z"
                 class="st1" />
            </g>
          </g>
        </g>
        <g
           id="g9097">
          <g
             id="g9087">
            <g
               id="g9085">
              <g
                 id="g9083">
                <path
                   style="fill:#6a3129"
                   id="path9081"
                   d="m 104.7,401.3 c 2.9,0 2.9,-4.5 0,-4.5 -3,-0.1 -3,4.5 0,4.5 z"
                   class="st1" />
              </g>
            </g>
          </g>
          <g
             id="g9095">
            <g
               id="g9093">
              <g
                 id="g9091">
                <path
                   style="fill:#6a3129"
                   id="path9089"
                   d="m 130.8,394.2 c 2.9,0 2.9,-4.5 0,-4.5 -2.9,0 -2.9,4.5 0,4.5 z"
                   class="st1" />
              </g>
            </g>
          </g>
        </g>
      </g>
      <g
         id="g9121">
        <g
           id="g9109">
          <g
             style="opacity:0.41000001"
             id="g9107"
             class="st2">
            <g
               id="g9105">
              <g
                 id="g9103">
                <path
                   style="fill:#6a3129"
                   id="path9101"
                   d="m 134.8,402.5 v 0 c 1.8,0 3.4,-0.5 4.1,-1.5 0.7,-1 0.4,-2.5 -1,-3.5 -0.7,-0.6 -1.7,-1 -2.7,-1.4 -2.1,-0.7 -4.4,-0.8 -6.1,-0.2 -1.6,0.6 -3.1,2.1 -1.7,3.6 1.6,1.6 4.9,2.9 7.4,3 z"
                   class="st1" />
              </g>
            </g>
          </g>
        </g>
        <g
           id="g9119">
          <g
             style="opacity:0.41000001"
             id="g9117"
             class="st2">
            <g
               id="g9115">
              <g
                 id="g9113">
                <path
                   style="fill:#6a3129"
                   id="path9111"
                   d="m 108.2,408 v 0 c 1.8,-0.7 3.3,-1.9 3.8,-3.1 0.6,-1.3 0.1,-2.6 -1.4,-3.1 -0.8,-0.3 -1.8,-0.3 -2.8,-0.2 -2.1,0.2 -4.3,1 -5.9,2.2 -1.5,1.2 -2.7,3.3 -1.3,4.2 1.8,1 5.1,0.9 7.6,0 z"
                   class="st1" />
              </g>
            </g>
          </g>
        </g>
      </g>
    </g>
  </g>
</svg>
