<?xml version="1.0" encoding="UTF-8" standalone="no"?>
<svg
   xmlns:dc="http://purl.org/dc/elements/1.1/"
   xmlns:cc="http://creativecommons.org/ns#"
   xmlns:rdf="http://www.w3.org/1999/02/22-rdf-syntax-ns#"
   xmlns:svg="http://www.w3.org/2000/svg"
   xmlns="http://www.w3.org/2000/svg"
   id="svg1004"
   version="1.1"
   viewBox="0 0 6.6457629 19.737916"
   height="32"
   width="32">
  <defs
     id="defs998" />
  <metadata
     id="metadata1001">
    <rdf:RDF>
      <cc:Work
         rdf:about="">
        <dc:format>image/svg+xml</dc:format>
        <dc:type
           rdf:resource="http://purl.org/dc/dcmitype/StillImage" />
        <dc:title></dc:title>
      </cc:Work>
    </rdf:RDF>
  </metadata>
  <g
     transform="matrix(0.42895443,0,0,0.42895443,35.789724,-165.866)"
     id="layer1">
    <g
       transform="matrix(0.61680987,0,0,0.61680987,-319.0815,297.176)"
       id="g8205">
      <g
         id="g8181">
        <g
           id="g8155">
          <g
             id="g8153">
            <g
               id="g8151">
              <path
                 style="fill:#6a3129"
                 id="path8147"
                 d="m 394.6,219.3 c -20.3,0 -36.8,-16.5 -36.8,-36.8 0,-20.3 16.5,-36.8 36.8,-36.8 20.3,0 36.8,16.5 36.8,36.8 0,20.3 -16.5,36.8 -36.8,36.8 z m 0,-71.8 c -19.3,0 -35,15.7 -35,35 0,19.3 15.7,35 35,35 19.3,0 35,-15.7 35,-35 0,-19.3 -15.7,-35 -35,-35 z"
                 class="st1" />
              <path
                 style="fill:#6a3129"
                 id="path8149"
                 d="m 394.6,219.7 c -20.5,0 -37.3,-16.7 -37.3,-37.3 0,-20.6 16.7,-37.3 37.3,-37.3 20.5,0 37.3,16.7 37.3,37.3 0,20.6 -16.7,37.3 -37.3,37.3 z m 0,-73.6 c -20,0 -36.4,16.3 -36.4,36.4 0,20 16.3,36.4 36.4,36.4 20,0 36.4,-16.3 36.4,-36.4 0,-20.1 -16.3,-36.4 -36.4,-36.4 z m 0,71.8 c -19.5,0 -35.4,-15.9 -35.4,-35.4 0,-19.5 15.9,-35.4 35.4,-35.4 19.5,0 35.4,15.9 35.4,35.4 0.1,19.5 -15.8,35.4 -35.4,35.4 z m 0,-70 c -19,0 -34.5,15.5 -34.5,34.5 0,19 15.5,34.5 34.5,34.5 19,0 34.5,-15.5 34.5,-34.5 0,-19 -15.4,-34.5 -34.5,-34.5 z"
                 class="st1" />
            </g>
          </g>
        </g>
        <g
           id="g8161">
          <g
             id="g8159">
            <path
               style="fill:#6a3129"
               id="path8157"
               d="m 381,194.9 c 0,0 0.1,-0.2 0.2,-0.5 0.1,-0.3 0.4,-0.7 0.7,-1.3 0.4,-0.5 0.8,-1.2 1.6,-1.8 0.4,-0.3 0.8,-0.6 1.4,-0.8 0.6,-0.2 1.4,-0.2 2,0.2 0.2,0.1 0.3,0.2 0.5,0.3 l 0.1,0.1 0.1,0.1 0.2,0.1 c 0.2,0.2 0.5,0.4 0.7,0.7 0.4,0.4 0.8,0.9 1.2,1.4 0.7,1 1.5,2 2.3,2.8 0.4,0.4 0.8,0.6 1.1,0.6 0.1,0 0.3,0 0.5,-0.2 0.1,0 0.2,-0.1 0.3,-0.2 l 0.4,-0.3 c 0.9,-0.9 1.8,-2 2.7,-3.1 0.5,-0.5 1,-1.1 1.6,-1.6 0.6,-0.5 1.3,-1 2.2,-1.2 0.4,-0.1 0.9,-0.1 1.4,0.1 0.4,0.1 0.8,0.3 1.2,0.6 0.7,0.5 1.1,1.2 1.5,1.8 0.7,1.2 1.1,2.5 1.7,3.1 0.3,0.3 0.6,0.4 1.1,0.4 0.1,0 0.2,0 0.3,0 0.1,0 0.3,-0.1 0.4,-0.1 0.2,-0.1 0.4,-0.2 0.7,-0.3 0.9,-0.4 1.6,-1 2.1,-1.6 0.6,-0.6 1,-1.2 1.3,-1.7 0.3,-0.5 0.5,-0.9 0.7,-1.2 0.1,-0.3 0.2,-0.4 0.2,-0.4 l 0.7,0.2 c 0,0 -0.1,0.2 -0.2,0.5 -0.1,0.3 -0.3,0.8 -0.6,1.3 -0.3,0.6 -0.7,1.2 -1.3,1.9 -0.6,0.7 -1.3,1.5 -2.3,2 -0.3,0.1 -0.5,0.3 -0.8,0.4 -0.2,0.1 -0.3,0.1 -0.4,0.1 -0.2,0 -0.3,0.1 -0.5,0.1 -0.3,0.1 -0.8,0 -1.1,-0.1 -0.4,-0.1 -0.7,-0.4 -1,-0.6 -1.1,-1.1 -1.4,-2.4 -2,-3.4 -0.3,-0.5 -0.7,-1 -1.1,-1.3 -0.2,-0.1 -0.4,-0.3 -0.7,-0.3 -0.2,-0.1 -0.5,-0.1 -0.7,0 -1,0.2 -1.9,1.3 -2.8,2.3 -0.9,1.1 -1.7,2.2 -2.7,3.3 -0.4,0.4 -1.3,1.3 -2.4,1.3 -0.5,0 -1,-0.2 -1.4,-0.4 -0.4,-0.2 -0.7,-0.5 -1,-0.7 -1.1,-1 -1.8,-2.1 -2.5,-3.1 -0.3,-0.5 -0.7,-0.9 -1,-1.4 -0.2,-0.2 -0.3,-0.4 -0.5,-0.6 l -0.1,-0.1 v 0 0 c 0,0 0,0 0,0 v 0 h -0.1 c -0.1,-0.1 -0.1,-0.1 -0.2,-0.2 -0.5,-0.4 -1.3,-0.2 -1.9,0.2 -0.7,0.4 -1.2,0.8 -1.7,1.2 -0.9,0.8 -1.4,1.3 -1.4,1.3 z"
               class="st1" />
          </g>
        </g>
        <g
           id="g8179">
          <g
             id="g8169">
            <g
               id="g8167">
              <g
                 id="g8165">
                <path
                   style="fill:#6a3129"
                   id="path8163"
                   d="m 382.8,176.8 c 2.9,0 2.9,-4.5 0,-4.5 -3,0 -3,4.5 0,4.5 z"
                   class="st1" />
              </g>
            </g>
          </g>
          <g
             id="g8177">
            <g
               id="g8175">
              <g
                 id="g8173">
                <path
                   style="fill:#6a3129"
                   id="path8171"
                   d="m 409.9,176.8 c 2.9,0 2.9,-4.5 0,-4.5 -3,0 -3,4.5 0,4.5 z"
                   class="st1" />
              </g>
            </g>
          </g>
        </g>
      </g>
      <g
         id="g8203">
        <g
           id="g8191">
          <g
             style="opacity:0.41000001"
             id="g8189"
             class="st2">
            <g
               id="g8187">
              <g
                 id="g8185">
                <path
                   style="fill:#6a3129"
                   id="path8183"
                   d="m 417.2,189.2 v 0 c 1.8,-0.7 3.3,-2.3 3.7,-4.3 0.4,-1.9 -0.3,-4.1 -2,-5.2 -0.9,-0.6 -2,-0.9 -3.1,-0.9 -2.3,-0.1 -4.6,0.7 -6.1,2.4 -1.5,1.6 -2.5,4.8 -0.7,6.5 2,2 5.6,2.5 8.2,1.5 z"
                   class="st1" />
              </g>
            </g>
          </g>
        </g>
        <g
           id="g8201">
          <g
             style="opacity:0.41000001"
             id="g8199"
             class="st2">
            <g
               id="g8197">
              <g
                 id="g8195">
                <path
                   style="fill:#6a3129"
                   id="path8193"
                   d="m 379,189.6 v 0 c 2,-0.2 3.8,-1.3 4.8,-3 1,-1.7 0.9,-4 -0.3,-5.5 -0.7,-0.8 -1.7,-1.4 -2.7,-1.8 -2.1,-0.8 -4.6,-0.7 -6.6,0.5 -1.9,1.1 -3.8,3.8 -2.6,6 1.4,2.5 4.6,4.1 7.4,3.8 z"
                   class="st1" />
              </g>
            </g>
          </g>
        </g>
      </g>
    </g>
  </g>
</svg>
