<?xml version="1.0" encoding="UTF-8" standalone="no"?>
<svg
   xmlns:dc="http://purl.org/dc/elements/1.1/"
   xmlns:cc="http://creativecommons.org/ns#"
   xmlns:rdf="http://www.w3.org/1999/02/22-rdf-syntax-ns#"
   xmlns:svg="http://www.w3.org/2000/svg"
   xmlns="http://www.w3.org/2000/svg"
   id="svg1004"
   version="1.1"
   viewBox="0 0 6.6457629 19.737916"
   height="32"
   width="32">
  <defs
     id="defs998" />
  <metadata
     id="metadata1001">
    <rdf:RDF>
      <cc:Work
         rdf:about="">
        <dc:format>image/svg+xml</dc:format>
        <dc:type
           rdf:resource="http://purl.org/dc/dcmitype/StillImage" />
        <dc:title></dc:title>
      </cc:Work>
    </rdf:RDF>
  </metadata>
  <g
     transform="matrix(0.42895443,0,0,0.42895443,59.127165,-152.305)"
     id="layer1">
    <g
       transform="matrix(0.61680987,0,0,0.61680987,-428.62971,-2.256943)"
       id="g8631">
      <g
         id="g8607">
        <g
           id="g8565">
          <g
             id="g8563">
            <g
               id="g8561">
              <path
                 style="fill:#6a3129"
                 id="path8557"
                 d="m 484,653.5 c -20.3,0 -36.8,-16.5 -36.8,-36.8 0,-20.3 16.5,-36.8 36.8,-36.8 20.3,0 36.8,16.5 36.8,36.8 0,20.2 -16.5,36.8 -36.8,36.8 z m 0,-71.8 c -19.3,0 -35,15.7 -35,35 0,19.3 15.7,35 35,35 19.3,0 35,-15.7 35,-35 0,-19.3 -15.7,-35 -35,-35 z"
                 class="st1" />
              <path
                 style="fill:#6a3129"
                 id="path8559"
                 d="m 484,653.9 c -20.5,0 -37.3,-16.7 -37.3,-37.3 0,-20.5 16.7,-37.3 37.3,-37.3 20.5,0 37.3,16.7 37.3,37.3 -0.1,20.6 -16.8,37.3 -37.3,37.3 z m 0,-73.6 c -20,0 -36.4,16.3 -36.4,36.4 0,20 16.3,36.4 36.4,36.4 20,0 36.4,-16.3 36.4,-36.4 C 520.3,596.6 504,580.3 484,580.3 Z m 0,71.8 c -19.5,0 -35.4,-15.9 -35.4,-35.4 0,-19.5 15.9,-35.4 35.4,-35.4 19.5,0 35.4,15.9 35.4,35.4 0,19.5 -15.9,35.4 -35.4,35.4 z m 0,-70 c -19,0 -34.5,15.5 -34.5,34.5 0,19 15.5,34.5 34.5,34.5 19,0 34.5,-15.5 34.5,-34.5 0,-19 -15.5,-34.5 -34.5,-34.5 z"
                 class="st1" />
            </g>
          </g>
        </g>
        <g
           id="g8571">
          <g
             id="g8569">
            <path
               style="fill:#6a3129"
               id="path8567"
               d="m 483,630.8 v 0 c 2.8,-2.3 6.7,-2.3 10.2,-0.8 1.9,0.8 3.6,2 5,3.4 2.3,2.5 -29.6,9.3 -15.2,-2.6 z"
               class="st1" />
          </g>
        </g>
        <g
           id="g8605">
          <g
             id="g8587">
            <g
               id="g8577">
              <g
                 id="g8575">
                <path
                   style="fill:#ffffff"
                   id="path8573"
                   d="m 467.6,618.8 c 1.1,0.7 2.6,0.6 3.9,0.3 0.5,-0.1 1,-0.2 1.5,-0.4 0.7,-0.4 1.3,-1 1.6,-1.8"
                   class="st3" />
              </g>
            </g>
            <g
               id="g8585">
              <g
                 id="g8583">
                <g
                   id="g8581">
                  <path
                     style="fill:#6a3129"
                     id="path8579"
                     d="m 467,619.8 c 2.9,1.6 7.5,0.7 8.7,-2.6 0.5,-1.4 -1.7,-2 -2.2,-0.6 -0.6,1.7 -3.9,2 -5.4,1.2 -1.2,-0.7 -2.4,1.3 -1.1,2 z"
                     class="st1" />
                </g>
              </g>
            </g>
          </g>
          <g
             id="g8603">
            <g
               id="g8593">
              <g
                 id="g8591">
                <path
                   style="fill:#ffffff"
                   id="path8589"
                   d="m 493.1,614.3 c 1.1,0.7 2.6,0.6 3.9,0.3 0.5,-0.1 1,-0.2 1.5,-0.4 0.7,-0.4 1.3,-1 1.6,-1.8"
                   class="st3" />
              </g>
            </g>
            <g
               id="g8601">
              <g
                 id="g8599">
                <g
                   id="g8597">
                  <path
                     style="fill:#6a3129"
                     id="path8595"
                     d="m 492.6,615.3 c 2.9,1.6 7.5,0.7 8.7,-2.6 0.5,-1.4 -1.7,-2 -2.2,-0.6 -0.6,1.7 -3.9,2 -5.4,1.2 -1.3,-0.7 -2.4,1.3 -1.1,2 z"
                     class="st1" />
                </g>
              </g>
            </g>
          </g>
        </g>
      </g>
      <g
         id="g8629">
        <g
           id="g8617">
          <g
             style="opacity:0.41000001"
             id="g8615"
             class="st2">
            <g
               id="g8613">
              <g
                 id="g8611">
                <path
                   style="fill:#6a3129"
                   id="path8609"
                   d="m 503.7,624.8 v 0 c 1.4,-1.1 2.3,-2.6 2.1,-3.9 -0.1,-1.2 -1.3,-2.1 -3,-2 -0.9,0 -2,0.3 -2.9,0.8 -2,0.9 -3.8,2.3 -4.7,3.8 -0.9,1.5 -0.9,3.6 1,3.9 2.3,0.2 5.5,-1 7.5,-2.6 z"
                   class="st1" />
              </g>
            </g>
          </g>
        </g>
        <g
           id="g8627">
          <g
             style="opacity:0.41000001"
             id="g8625"
             class="st2">
            <g
               id="g8623">
              <g
                 id="g8621">
                <path
                   style="fill:#6a3129"
                   id="path8619"
                   d="m 472.4,630.3 v 0 c 1.9,-0.2 3.7,-0.9 4.6,-1.9 0.9,-1.1 0.8,-2.4 -0.4,-3.3 -0.7,-0.5 -1.6,-0.8 -2.6,-1 -2.1,-0.4 -4.4,-0.3 -6.3,0.5 -1.8,0.7 -3.6,2.4 -2.4,3.7 1.2,1.4 4.4,2.3 7.1,2 z"
                   class="st1" />
              </g>
            </g>
          </g>
        </g>
      </g>
    </g>
  </g>
</svg>
