<?xml version="1.0" encoding="UTF-8" standalone="no"?>
<svg
   xmlns:dc="http://purl.org/dc/elements/1.1/"
   xmlns:cc="http://creativecommons.org/ns#"
   xmlns:rdf="http://www.w3.org/1999/02/22-rdf-syntax-ns#"
   xmlns:svg="http://www.w3.org/2000/svg"
   xmlns="http://www.w3.org/2000/svg"
   id="svg1004"
   version="1.1"
   viewBox="0 0 6.6457629 19.737916"
   height="32"
   width="32">
  <defs
     id="defs998" />
  <metadata
     id="metadata1001">
    <rdf:RDF>
      <cc:Work
         rdf:about="">
        <dc:format>image/svg+xml</dc:format>
        <dc:type
           rdf:resource="http://purl.org/dc/dcmitype/StillImage" />
        <dc:title></dc:title>
      </cc:Work>
    </rdf:RDF>
  </metadata>
  <g
     transform="matrix(0.42895443,0,0,0.42895443,65.612476,-167.93232)"
     id="layer1">
    <g
       transform="matrix(0.61680987,0,0,0.61680987,-273.01562,98.939283)"
       id="g9185">
      <g
         id="g9161">
        <g
           id="g9133">
          <g
             id="g9131">
            <g
               id="g9129">
              <path
                 style="fill:#6a3129"
                 id="path9125"
                 d="m 207.2,548.5 c -20.3,0 -36.8,-16.5 -36.8,-36.8 0,-20.3 16.5,-36.8 36.8,-36.8 20.3,0 36.8,16.5 36.8,36.8 0,20.3 -16.5,36.8 -36.8,36.8 z m 0,-71.8 c -19.3,0 -35,15.7 -35,35 0,19.3 15.7,35 35,35 19.3,0 35,-15.7 35,-35 0,-19.3 -15.7,-35 -35,-35 z"
                 class="st1" />
              <path
                 style="fill:#6a3129"
                 id="path9127"
                 d="m 207.2,548.9 c -20.5,0 -37.3,-16.7 -37.3,-37.3 0,-20.5 16.7,-37.3 37.3,-37.3 20.6,0 37.3,16.7 37.3,37.3 0,20.6 -16.7,37.3 -37.3,37.3 z m 0,-73.6 c -20,0 -36.4,16.3 -36.4,36.4 0,20 16.3,36.4 36.4,36.4 20,0 36.4,-16.3 36.4,-36.4 0,-20.1 -16.3,-36.4 -36.4,-36.4 z m 0,71.8 c -19.5,0 -35.4,-15.9 -35.4,-35.4 0,-19.5 15.9,-35.4 35.4,-35.4 19.5,0 35.4,15.9 35.4,35.4 0.1,19.5 -15.8,35.4 -35.4,35.4 z m 0,-70 c -19,0 -34.5,15.5 -34.5,34.5 0,19 15.5,34.5 34.5,34.5 19,0 34.5,-15.5 34.5,-34.5 0,-19 -15.4,-34.5 -34.5,-34.5 z"
                 class="st1" />
            </g>
          </g>
        </g>
        <g
           id="g9141">
          <g
             id="g9139">
            <g
               id="g9137">
              <path
                 style="fill:#6a3129"
                 id="path9135"
                 d="m 209,528.6 c 8.9,0.3 17.3,-3.1 23.5,-9.5 2.1,-2.1 -1.2,-5.3 -3.2,-3.2 -5.5,5.6 -12.5,8.4 -20.3,8.1 -3,-0.1 -3,4.5 0,4.6 z"
                 class="st1" />
            </g>
          </g>
        </g>
        <g
           id="g9159">
          <g
             id="g9149">
            <g
               id="g9147">
              <g
                 id="g9145">
                <path
                   style="fill:#6a3129"
                   id="path9143"
                   d="m 202.6,504.2 c 2.9,0 2.9,-4.5 0,-4.5 -2.9,-0.1 -2.9,4.5 0,4.5 z"
                   class="st1" />
              </g>
            </g>
          </g>
          <g
             id="g9157">
            <g
               id="g9155">
              <g
                 id="g9153">
                <path
                   style="fill:#6a3129"
                   id="path9151"
                   d="m 223.4,493.7 c 2.9,0 2.9,-4.5 0,-4.5 -3,-0.1 -3,4.5 0,4.5 z"
                   class="st1" />
              </g>
            </g>
          </g>
        </g>
      </g>
      <g
         id="g9183">
        <g
           id="g9171">
          <g
             style="opacity:0.41000001"
             id="g9169"
             class="st2">
            <g
               id="g9167">
              <g
                 id="g9165">
                <path
                   style="fill:#6a3129"
                   id="path9163"
                   d="m 227.8,503 v 0 c 1.8,0 3.4,-0.5 4.1,-1.5 0.7,-1 0.4,-2.5 -1,-3.5 -0.7,-0.6 -1.7,-1 -2.7,-1.4 -2.1,-0.7 -4.4,-0.8 -6.1,-0.2 -1.6,0.6 -3.1,2.1 -1.7,3.6 1.6,1.7 4.8,3 7.4,3 z"
                   class="st1" />
              </g>
            </g>
          </g>
        </g>
        <g
           id="g9181">
          <g
             style="opacity:0.41000001"
             id="g9179"
             class="st2">
            <g
               id="g9177">
              <g
                 id="g9175">
                <path
                   style="fill:#6a3129"
                   id="path9173"
                   d="m 205,513.2 v 0 c 1.4,-1.3 2.3,-3 2.4,-4.4 0,-1.4 -0.9,-2.4 -2.4,-2.3 -0.8,0 -1.8,0.4 -2.7,0.8 -1.9,1 -3.7,2.5 -4.6,4.3 -1,1.7 -1.3,4.1 0.4,4.4 1.9,0.3 5,-1 6.9,-2.8 z"
                   class="st1" />
              </g>
            </g>
          </g>
        </g>
      </g>
    </g>
  </g>
</svg>
