<?xml version="1.0" encoding="UTF-8" standalone="no"?>
<svg
   xmlns:dc="http://purl.org/dc/elements/1.1/"
   xmlns:cc="http://creativecommons.org/ns#"
   xmlns:rdf="http://www.w3.org/1999/02/22-rdf-syntax-ns#"
   xmlns:svg="http://www.w3.org/2000/svg"
   xmlns="http://www.w3.org/2000/svg"
   id="svg1004"
   version="1.1"
   viewBox="0 0 6.6457629 19.737916"
   height="32"
   width="32">
  <defs
     id="defs998" />
  <metadata
     id="metadata1001">
    <rdf:RDF>
      <cc:Work
         rdf:about="">
        <dc:format>image/svg+xml</dc:format>
        <dc:type
           rdf:resource="http://purl.org/dc/dcmitype/StillImage" />
        <dc:title></dc:title>
      </cc:Work>
    </rdf:RDF>
  </metadata>
  <g
     transform="matrix(0.42895443,0,0,0.42895443,66.260129,-161.64085)"
     id="layer1">
    <g
       transform="matrix(0.61680987,0,0,0.61680987,-390.11563,84.272313)"
       id="g9531">
      <g
         id="g9493">
        <g
           id="g9481">
          <g
             style="opacity:0.41000001"
             id="g9479"
             class="st2">
            <g
               id="g9477">
              <g
                 id="g9475">
                <path
                   style="fill:#6a3129"
                   id="path9473"
                   d="m 415.3,503.9 v 0 c 1.8,0 3.4,-0.5 4.1,-1.5 0.7,-1 0.4,-2.5 -1,-3.5 -0.7,-0.6 -1.7,-1 -2.7,-1.4 -2.1,-0.7 -4.4,-0.8 -6.1,-0.2 -1.6,0.6 -3.1,2.1 -1.7,3.6 1.6,1.7 4.8,2.9 7.4,3 z"
                   class="st1" />
              </g>
            </g>
          </g>
        </g>
        <g
           id="g9491">
          <g
             style="opacity:0.41000001"
             id="g9489"
             class="st2">
            <g
               id="g9487">
              <g
                 id="g9485">
                <path
                   style="fill:#6a3129"
                   id="path9483"
                   d="m 381.3,521.3 v 0 c 1.4,-1.3 2.3,-3 2.4,-4.4 0,-1.4 -0.9,-2.4 -2.4,-2.3 -0.8,0 -1.8,0.4 -2.7,0.8 -1.9,1 -3.7,2.5 -4.6,4.3 -1,1.7 -1.3,4.1 0.4,4.4 1.9,0.3 4.9,-1 6.9,-2.8 z"
                   class="st1" />
              </g>
            </g>
          </g>
        </g>
      </g>
      <g
         id="g9529">
        <g
           id="g9503">
          <g
             id="g9501">
            <g
               id="g9499">
              <path
                 style="fill:#6a3129"
                 id="path9495"
                 d="m 394.6,548.5 c -20.3,0 -36.8,-16.5 -36.8,-36.8 0,-20.3 16.5,-36.8 36.8,-36.8 20.3,0 36.8,16.5 36.8,36.8 0,20.3 -16.5,36.8 -36.8,36.8 z m 0,-71.8 c -19.3,0 -35,15.7 -35,35 0,19.3 15.7,35 35,35 19.3,0 35,-15.7 35,-35 0,-19.3 -15.7,-35 -35,-35 z"
                 class="st1" />
              <path
                 style="fill:#6a3129"
                 id="path9497"
                 d="m 394.6,548.9 c -20.5,0 -37.3,-16.7 -37.3,-37.3 0,-20.5 16.7,-37.3 37.3,-37.3 20.5,0 37.3,16.7 37.3,37.3 0,20.6 -16.7,37.3 -37.3,37.3 z m 0,-73.6 c -20,0 -36.4,16.3 -36.4,36.4 0,20 16.3,36.4 36.4,36.4 20,0 36.4,-16.3 36.4,-36.4 0,-20.1 -16.3,-36.4 -36.4,-36.4 z m 0,71.8 c -19.5,0 -35.4,-15.9 -35.4,-35.4 0,-19.5 15.9,-35.4 35.4,-35.4 19.5,0 35.4,15.9 35.4,35.4 0.1,19.5 -15.8,35.4 -35.4,35.4 z m 0,-70 c -19,0 -34.5,15.5 -34.5,34.5 0,19 15.5,34.5 34.5,34.5 19,0 34.5,-15.5 34.5,-34.5 0.1,-19 -15.4,-34.5 -34.5,-34.5 z"
                 class="st1" />
            </g>
          </g>
        </g>
        <g
           id="g9511">
          <g
             id="g9509">
            <g
               id="g9507">
              <path
                 style="fill:#6a3129"
                 id="path9505"
                 d="m 377.9,524.4 c 4.9,10.8 18.8,11.6 28.5,7.3 12.4,-5.5 15.3,-17.9 10.4,-29.9 -1.1,-2.7 -5.5,-1.5 -4.4,1.2 4.1,9.9 2.6,19.8 -7.8,24.5 -7.7,3.5 -18.8,3.4 -22.8,-5.4 -1.2,-2.6 -5.1,-0.3 -3.9,2.3 z"
                 class="st1" />
            </g>
          </g>
        </g>
        <g
           id="g9527">
          <g
             id="g9519">
            <g
               id="g9517">
              <g
                 id="g9515">
                <path
                   style="fill:#6a3129"
                   id="path9513"
                   d="m 403.4,496.8 c 2.9,0 2.9,-4.5 0,-4.5 -2.9,0 -2.9,4.5 0,4.5 z"
                   class="st1" />
              </g>
            </g>
          </g>
          <g
             id="g9525">
            <g
               id="g9523">
              <polygon
                 style="fill:#6a3129"
                 id="polygon9521"
                 points="381.2,507.4 376.1,508.3 375.8,506.5 385.8,504.8 379.3,512.6 377.9,511.4 "
                 class="st1" />
            </g>
          </g>
        </g>
      </g>
    </g>
  </g>
</svg>
