<?xml version="1.0" encoding="UTF-8" standalone="no"?>
<svg
   xmlns:dc="http://purl.org/dc/elements/1.1/"
   xmlns:cc="http://creativecommons.org/ns#"
   xmlns:rdf="http://www.w3.org/1999/02/22-rdf-syntax-ns#"
   xmlns:svg="http://www.w3.org/2000/svg"
   xmlns="http://www.w3.org/2000/svg"
   id="svg1004"
   version="1.1"
   viewBox="0 0 6.6457629 19.737916"
   height="32"
   width="32">
  <defs
     id="defs998" />
  <metadata
     id="metadata1001">
    <rdf:RDF>
      <cc:Work
         rdf:about="">
        <dc:format>image/svg+xml</dc:format>
        <dc:type
           rdf:resource="http://purl.org/dc/dcmitype/StillImage" />
        <dc:title></dc:title>
      </cc:Work>
    </rdf:RDF>
  </metadata>
  <g
     transform="matrix(0.42895443,0,0,0.42895443,60.629535,-153.36679)"
     id="layer1">
    <g
       transform="matrix(0.61680987,0,0,0.61680987,-261.39914,268.03721)"
       id="g7795">
      <g
         id="g7775">
        <g
           id="g7749">
          <g
             id="g7747">
            <g
               id="g7745">
              <path
                 style="fill:#6a3129"
                 id="path7741"
                 d="m 207.2,219.3 c -20.3,0 -36.8,-16.5 -36.8,-36.8 0,-20.3 16.5,-36.8 36.8,-36.8 20.3,0 36.8,16.5 36.8,36.8 0,20.3 -16.5,36.8 -36.8,36.8 z m 0,-71.8 c -19.3,0 -35,15.7 -35,35 0,19.3 15.7,35 35,35 19.3,0 35,-15.7 35,-35 0,-19.3 -15.7,-35 -35,-35 z"
                 class="st1" />
              <path
                 style="fill:#6a3129"
                 id="path7743"
                 d="m 207.2,219.7 c -20.5,0 -37.3,-16.7 -37.3,-37.3 0,-20.6 16.7,-37.3 37.3,-37.3 20.6,0 37.3,16.7 37.3,37.3 0,20.6 -16.7,37.3 -37.3,37.3 z m 0,-73.6 c -20,0 -36.4,16.3 -36.4,36.4 0,20 16.3,36.4 36.4,36.4 20,0 36.4,-16.3 36.4,-36.4 0,-20.1 -16.3,-36.4 -36.4,-36.4 z m 0,71.8 c -19.5,0 -35.4,-15.9 -35.4,-35.4 0,-19.5 15.9,-35.4 35.4,-35.4 19.5,0 35.4,15.9 35.4,35.4 0.1,19.5 -15.8,35.4 -35.4,35.4 z m 0,-70 c -19,0 -34.5,15.5 -34.5,34.5 0,19 15.5,34.5 34.5,34.5 19,0 34.5,-15.5 34.5,-34.5 0,-19 -15.4,-34.5 -34.5,-34.5 z"
                 class="st1" />
            </g>
          </g>
        </g>
        <g
           id="g7755">
          <g
             id="g7753">
            <path
               style="fill:#6a3129"
               id="path7751"
               d="m 189.4,186.3 c 0,0 6.6,12.5 17.8,12.5 10.3,0 17.8,-12.5 17.8,-12.5 0,0 -4,14.9 -17.8,14.9 -14.8,0 -17.8,-14.9 -17.8,-14.9 z"
               class="st1" />
          </g>
        </g>
        <g
           id="g7773">
          <g
             id="g7763">
            <g
               id="g7761">
              <g
                 id="g7759">
                <path
                   style="fill:#6a3129"
                   id="path7757"
                   d="m 193.7,176.8 c 2.9,0 2.9,-4.5 0,-4.5 -3,0 -3,4.5 0,4.5 z"
                   class="st1" />
              </g>
            </g>
          </g>
          <g
             id="g7771">
            <g
               id="g7769">
              <g
                 id="g7767">
                <path
                   style="fill:#6a3129"
                   id="path7765"
                   d="m 220.8,176.8 c 2.9,0 2.9,-4.5 0,-4.5 -3,0 -3,4.5 0,4.5 z"
                   class="st1" />
              </g>
            </g>
          </g>
        </g>
      </g>
      <g
         id="g7793">
        <g
           style="opacity:0.41000001"
           id="g7783"
           class="st2">
          <g
             id="g7781">
            <g
               id="g7779">
              <path
                 style="fill:#6a3129"
                 id="path7777"
                 d="m 222.3,190.9 v 0 c 0.9,2.1 2.7,3.8 4.9,4.3 2.2,0.5 4.7,-0.4 6,-2.3 0.7,-1 1,-2.3 1.1,-3.6 0.1,-2.6 -0.8,-5.3 -2.7,-7.1 -1.9,-1.7 -5.5,-2.9 -7.5,-0.8 -2.3,2.3 -3,6.5 -1.8,9.5 z"
                 class="st1" />
            </g>
          </g>
        </g>
        <g
           style="opacity:0.41000001"
           id="g7791"
           class="st2">
          <g
             id="g7789">
            <g
               id="g7787">
              <path
                 style="fill:#6a3129"
                 id="path7785"
                 d="m 193.1,190.9 v 0 c -0.9,2.1 -2.7,3.8 -4.9,4.3 -2.2,0.5 -4.7,-0.4 -6,-2.3 -0.7,-1 -1,-2.3 -1.1,-3.6 -0.1,-2.6 0.8,-5.3 2.7,-7.1 1.9,-1.7 5.5,-2.9 7.5,-0.8 2.3,2.3 3,6.5 1.8,9.5 z"
                 class="st1" />
            </g>
          </g>
        </g>
      </g>
    </g>
  </g>
</svg>
