<?xml version="1.0" encoding="UTF-8" standalone="no"?>
<svg
   xmlns:dc="http://purl.org/dc/elements/1.1/"
   xmlns:cc="http://creativecommons.org/ns#"
   xmlns:rdf="http://www.w3.org/1999/02/22-rdf-syntax-ns#"
   xmlns:svg="http://www.w3.org/2000/svg"
   xmlns="http://www.w3.org/2000/svg"
   id="svg1004"
   version="1.1"
   viewBox="0 0 6.6457629 19.737916"
   height="32"
   width="32">
  <defs
     id="defs998" />
  <metadata
     id="metadata1001">
    <rdf:RDF>
      <cc:Work
         rdf:about="">
        <dc:format>image/svg+xml</dc:format>
        <dc:type
           rdf:resource="http://purl.org/dc/dcmitype/StillImage" />
        <dc:title></dc:title>
      </cc:Work>
    </rdf:RDF>
  </metadata>
  <g
     transform="matrix(0.42895443,0,0,0.42895443,58.84079,-154.33166)"
     id="layer1">
    <g
       transform="matrix(0.61680987,0,0,0.61680987,-200.5443,270.28656)"
       id="g8031">
      <g
         id="g8011">
        <g
           id="g7979">
          <g
             id="g7977">
            <g
               id="g7975">
              <path
                 style="fill:#6a3129"
                 id="path7971"
                 d="m 115.3,219.3 c -20.3,0 -36.8,-16.5 -36.8,-36.8 0,-20.3 16.5,-36.8 36.8,-36.8 20.3,0 36.8,16.5 36.8,36.8 0.1,20.3 -16.5,36.8 -36.8,36.8 z m 0,-71.8 c -19.3,0 -35,15.7 -35,35 0,19.3 15.7,35 35,35 19.3,0 35,-15.7 35,-35 0,-19.3 -15.7,-35 -35,-35 z"
                 class="st1" />
              <path
                 style="fill:#6a3129"
                 id="path7973"
                 d="M 115.3,219.7 C 94.8,219.7 78,203 78,182.4 c 0,-20.6 16.7,-37.3 37.3,-37.3 20.6,0 37.3,16.7 37.3,37.3 0,20.6 -16.7,37.3 -37.3,37.3 z m 0,-73.6 c -20,0 -36.4,16.3 -36.4,36.4 0,20 16.3,36.4 36.4,36.4 20,0 36.4,-16.3 36.4,-36.4 0,-20.1 -16.3,-36.4 -36.4,-36.4 z m 0,71.8 c -19.5,0 -35.4,-15.9 -35.4,-35.4 0,-19.5 15.9,-35.4 35.4,-35.4 19.5,0 35.4,15.9 35.4,35.4 0.1,19.5 -15.8,35.4 -35.4,35.4 z m 0,-70 c -19,0 -34.5,15.5 -34.5,34.5 0,19 15.5,34.6 34.5,34.6 19,0 34.5,-15.5 34.5,-34.5 0,-19 -15.4,-34.6 -34.5,-34.6 z"
                 class="st1" />
            </g>
          </g>
        </g>
        <g
           id="g7987">
          <g
             id="g7985">
            <path
               style="fill:#6a3129"
               id="path7981"
               d="m 89.5,186.8 h 51.8 c 0,0 -5.8,21.7 -25.9,21.7 -21.6,0 -25.9,-21.7 -25.9,-21.7 z"
               class="st1" />
            <path
               style="fill:#6a3129"
               id="path7983"
               d="M 115.3,209 C 93.7,209 89,187.1 89,186.9 l -0.1,-0.5 h 52.9 l -0.2,0.6 c 0,0.2 -6.1,22 -26.3,22 z M 90,187.3 c 0.9,3.3 6.3,20.8 25.3,20.8 17.7,0 24.2,-17.4 25.3,-20.8 z"
               class="st1" />
          </g>
        </g>
        <g
           id="g8009">
          <g
             id="g7997">
            <g
               id="g7995">
              <g
                 id="g7993">
                <path
                   style="fill:#6a3129"
                   id="path7989"
                   d="m 101.8,172.6 c 2.9,0 2.9,-4.5 0,-4.5 -2.9,0 -2.9,4.5 0,4.5 z"
                   class="st1" />
                <path
                   style="fill:#6a3129"
                   id="path7991"
                   d="m 101.8,173.1 c -1.7,0 -2.6,-1.4 -2.6,-2.7 0,-0.7 0.2,-1.4 0.7,-1.9 0.5,-0.6 1.2,-0.9 2,-0.9 1.7,0 2.6,1.4 2.6,2.7 -0.1,1.4 -1,2.8 -2.7,2.8 z m 0,-4.6 c -1.2,0 -1.7,0.9 -1.7,1.8 0,0.5 0.2,0.9 0.4,1.3 0.3,0.4 0.8,0.6 1.3,0.6 1.2,0 1.7,-0.9 1.7,-1.8 0,-0.5 -0.2,-0.9 -0.4,-1.3 -0.3,-0.4 -0.8,-0.6 -1.3,-0.6 z"
                   class="st1" />
              </g>
            </g>
          </g>
          <g
             id="g8007">
            <g
               id="g8005">
              <g
                 id="g8003">
                <path
                   style="fill:#6a3129"
                   id="path7999"
                   d="m 128.9,172.6 c 2.9,0 2.9,-4.5 0,-4.5 -2.9,0 -2.9,4.5 0,4.5 z"
                   class="st1" />
                <path
                   style="fill:#6a3129"
                   id="path8001"
                   d="m 128.9,173.1 c -1.7,0 -2.6,-1.4 -2.6,-2.7 0,-0.7 0.2,-1.4 0.7,-1.9 0.5,-0.6 1.2,-0.9 2,-0.9 1.7,0 2.6,1.4 2.6,2.7 -0.1,1.4 -1,2.8 -2.7,2.8 z m 0,-4.6 c -1.2,0 -1.7,0.9 -1.7,1.8 0,0.5 0.2,0.9 0.4,1.3 0.3,0.4 0.8,0.6 1.3,0.6 1.2,0 1.7,-0.9 1.7,-1.8 0,-0.5 -0.2,-0.9 -0.4,-1.3 -0.3,-0.4 -0.8,-0.6 -1.3,-0.6 z"
                   class="st1" />
              </g>
            </g>
          </g>
        </g>
      </g>
      <g
         id="g8029">
        <g
           style="opacity:0.41000001"
           id="g8019"
           class="st2">
          <g
             id="g8017">
            <g
               id="g8015">
              <path
                 style="fill:#6a3129"
                 id="path8013"
                 d="m 130,187.3 v 0 c 0.9,2.1 2.7,3.8 4.9,4.3 2.2,0.5 4.7,-0.4 6,-2.3 0.7,-1 1,-2.3 1.1,-3.6 0.1,-2.6 -0.8,-5.3 -2.7,-7.1 -1.9,-1.7 -5.5,-2.9 -7.5,-0.8 -2.4,2.4 -3,6.5 -1.8,9.5 z"
                 class="st1" />
            </g>
          </g>
        </g>
        <g
           style="opacity:0.41000001"
           id="g8027"
           class="st2">
          <g
             id="g8025">
            <g
               id="g8023">
              <path
                 style="fill:#6a3129"
                 id="path8021"
                 d="m 100.7,187.3 v 0 c -0.9,2.1 -2.7,3.8 -4.9,4.3 -2.2,0.5 -4.7,-0.4 -6,-2.3 -0.7,-1 -1,-2.3 -1.1,-3.6 -0.1,-2.6 0.8,-5.3 2.7,-7.1 1.9,-1.7 5.5,-2.9 7.5,-0.8 2.4,2.4 3,6.5 1.8,9.5 z"
                 class="st1" />
            </g>
          </g>
        </g>
      </g>
    </g>
  </g>
</svg>
